<svg xmlns="http://www.w3.org/2000/svg" viewBox="0 0 1119 220">
    <path d="M1106.98281 131.7351C1105.05027 143.731419 1099.48977 159.208911 1091.37683 158.346618 1087.21027 157.90705 1085.10836 154.651556 1085.3133 147.916573 1085.73504 132.9157 1105.80228 42.5820505 1110.36348 19.7683283 1111.92001 12.9390323 1096.05321 7.7315888 1087.84034 7.01413378 1084.95423 6.74803544 1082.62367 10.2443655 1081.08577 17.0770299 1079.50044 25.4271284 1075.7065 48.3890574 1072.38341 63.5600311 1072.38511 63.5633994 1065.08685 55.5265559 1053.81004 54.7467867 1022.01375 52.65842 1005.79127 96.6168553 1003.51829 126.40808 1000.8964 139.958886 987.634545 162.004628 969.845362 161.634111 960.421481 161.447169 956.166846 155.148385 956.380256 144.775602 956.712226 128.575603 961.344561 117.392736 961.346254 117.39442 961.346254 117.401157 965.319731 127.145745 976.964084 127.39837 992.556507 127.750361 1005.65746 104.685698 1006.34003 77.1849398 1006.88033 55.2975092 990.264898 46.7251007 979.645249 46.5533157 963.856353 46.2703756 950.270993 65.5136645 941.761724 89.0953668 940.916555 69.4276679 931.612929 52.223905 909.887531 52.567475 901.708538 52.7055766 893.653187 58.7028943 886.666575 68.3531696 886.925715 65.7646053 887.406733 63.1693044 887.88775 60.5740035 888.148584 58.1892235 874.322715 51.9022291 867.688398 52.143065 862.807085 52.3131658 858.486395 70.8204738 855.601983 91.1618393 854.741571 71.4368788 845.349872 54.4301634 823.465264 55.4692942 815.28627 55.8600209 807.271568 62.0628069 800.347625 71.8579205 800.589827 69.2727246 801.053907 66.6774237 801.517988 64.0804386 801.761884 61.7040794 787.893672 55.8145484 781.257661 56.2052751 773.510568 56.6566318 767.484297 103.020057 766.234329 129.614734 764.422044 138.756391 762.513217 147.940152 760.706014 156.696134 759.84899 156.984127 758.947928 157.192964 757.960487 157.248541 751.59886 157.608953 750.096527 150.857128 750.579238 141.636316 750.873946 125.370634 755.814539 103.274366 762.557254 81.2673599 764.12903 76.4658006 753.094418 76.9154731 750.670699 76.2114914 750.670699 76.2131756 751.117842 74.6890047 751.124617 73.4056697 751.168654 64.8501028 739.497202 56.1598026 719.150495 57.4886101 694.767644 59.1020418 677.903234 83.2917283 671.604275 111.745725 670.420362 112.335183 669.138213 112.737699 667.723953 112.825276 664.421191 113.034112 661.992391 109.992507 661.985616 107.223737 662.390416 92.7264302 672.742457 78.6451123 672.95756 71.3863538 673.174357 67.3241437 671.180844 64.0467553 663.440525 62.8476286 654.372327 61.5205052 647.743091 63.8598128 645.995168 69.7139763 643.153099 79.4669857 638.583431 97.8328237 633.133028 110.915431 632.690966 110.730172 632.250597 110.54323 631.808535 110.357971 632.636766 98.6159612 635.663451 83.7599266 636.503538 72.8616838 636.505232 72.8616838 627.36251 68.3178021 620.391142 67.9961262 621.42262 65.9667053 622.100109 64.1292794 622.091641 62.4838486 622.062847 56.5370559 610.100075 54.7131034 607.003947 55.3160351 590.84582 60.9697827 575.319452 130.466922 572.81274 142.22409 572.301236 142.249352 571.788037 142.272931 571.274839 142.298193 570.209487 122.211137 573.273433 96.4198078 577.516212 75.4165647 578.369849 71.7669755 568.371796 66.5679528 559.969231 66.9687845 555.104856 67.2011995 553.12828 68.5620062 551.622559 72.6545313 547.398412 91.4835152 539.724148 115.7372 531.621372 136.757285 531.182698 136.772442 530.74233 136.789284 530.301961 136.804441 530.276556 134.689128 529.793844 131.322479 529.744726 127.305741 529.776907 112.074137 532.014316 96.9755828 535.808258 81.5873516 536.646652 77.5352465 524.19778 71.9000247 515.795215 72.176228 510.653069 72.3496972 507.418056 82.8605816 505.499067 95.1482619 504.487914 95.0724744 503.595321 94.8215336 502.841614 93.6106177 501.257982 90.9108985 493.102701 91.9752918 486.930771 92.5260144 481.639577 93.0632635 472.828824 94.2842844 463.365988 95.8606644 466.208057 81.7069274 469.285554 67.7485537 472.82205 54.1876434 500.880282 50.3292174 526.111688 48.0606449 541.607569 46.960884 545.372718 46.7958357 547.56609 44.7883089 547.538991 42.2485855 547.494954 38.0196429 536.29097 27.9348527 535.166337 26.9209843 528.467658 23.3993917 520.502074 25.6174393 513.854208 26.2742643 507.428219 26.9243526 494.579628 28.6304135 479.309013 30.8568819 479.305625 30.6446769 479.302238 30.4341561 479.517341 30.0080619 475.476115 26.9344576 465.657597 23.7480142 458.096813 22.9918234 456.159193 26.3871035 454.462081 30.6194144 452.546479 35.0622462 442.379054 36.8373579 432.225179 38.7556238 423.146818 40.7496772 423.492338 39.040248 423.836164 37.3274504 424.183377 35.626442 424.996365 31.8606453 408.216641 24.7837768 401.556918 24.6372542 400.225651 24.6136759 398.011954 24.7804084 397.385276 26.4460493 391.95689 48.0758024 385.974657 81.2656757 381.735266 111.294368 381.108588 110.651017 380.48191 110.036296 379.877251 109.480521 378.073435 107.73404 376.295024 107.0469 369.901216 106.775749 362.848549 106.487756 348.340109 107.420785 338.069367 109.862826 328.089945 106.940797 312.046991 107.291104 312.245157 113.968825 312.358636 117.73799 319.772066 131.113642 325.684857 130.727968 329.412744 130.594919 334.224614 129.901042 339.910445 129.020223 342.190198 132.09888 344.056681 136.191405 344.19726 141.432531 344.674891 159.449747 332.056647 170.625877 314.518135 169.081496 300.705815 167.855423 292.194852 154.18841 291.561399 133.912727 290.199645 91.7799285 319.206363 44.1735881 334.3093 44.9836723 337.410508 45.1840881 341.89549 47.5419215 342.053006 53.4112425 342.535717 71.670978 328.664118 80.3848565 328.726785 82.4563816 328.792841 84.7586375 336.7381 93.280521 345.560708 93.8009286 356.807036 94.4779636 367.262394 80.672849 366.813557 62.4147977 366.373189 44.3571623 348.499319 29.4320769 328.533701 28.0813752 286.54967 25.2603959 262.798578 87.0322625 264.046853 123.23511 265.244316 158.681767 286.402316 185.460018 320.544405 188.397204 355.560455 191.277129 371.699951 162.120835 371.325638 146.456401 371.107148 137.641472 367.426685 130.983961 362.912911 126.362608 368.319278 125.820306 374.000028 125.515472 379.843376 125.426211 378.059885 139.537844 376.786204 152.315617 376.308574 161.977681 376.034191 168.677296 374.724942 177.844216 376.550777 180.858874 377.958261 184.530358 400.281544 193.941481 403.264192 190.403047 403.357347 184.735826 403.887482 179.07871 404.200821 173.416541 406.368788 136.789284 412.069863 98.8685862 418.915895 62.4316394 419.464662 62.5175319 420.00496 62.5259527 420.526627 62.4249027 428.681908 61.0287285 436.838883 59.5769768 445.22451 58.2801685 441.708339 71.3509863 438.461471 86.2979659 435.451723 101.440309 426.229396 103.513518 418.993807 105.305471 416.819065 106.745434 412.908256 109.20937 422.697981 124.292767 429.93357 123.083535 430.373938 123.086903 431.02941 122.881435 431.689962 122.884803 427.73681 145.371797 424.679638 167.414171 422.62007 184.203629 424.642376 186.382941 448.70342 196.25721 449.462208 190.106634 452.063768 165.260122 455.144652 141.661578 459.140147 118.660913 473.484296 116.724122 490.062466 114.553231 503.566528 113.406313 503.188827 119.300897 503.061798 124.621179 503.115997 128.344872 503.466598 152.398141 506.373029 186.185893 526.733285 185.148447 529.582129 185.059186 533.298159 184.297943 534.593858 182.561567 536.131759 164.736346 541.363673 142.966807 548.231724 126.588286 548.672092 126.56976 549.11246 126.551234 549.552829 126.532709 549.373294 130.13851 551.068712 165.007497 551.571748 171.127759 552.122208 181.263074 559.481439 193.490125 575.241541 192.777722 580.713963 192.528465 583.755891 189.411073 583.755891 189.411073 585.043122 158.353354 595.979498 122.312187 607.862665 93.2518902 607.346079 98.371757 607.010722 103.747617 606.675365 108.847274 603.645292 151.695843 601.333359 165.610429 601.374009 171.766058 601.41127 176.442989 624.24267 182.654196 630.578892 179.307757 631.527377 148.863075 642.185982 119.949301 647.224811 108.143292 647.917544 117.884513 651.03569 129.192008 667.529175 128.171403 668.103347 128.136035 668.653808 128.043406 669.211043 127.96425 668.979003 130.985645 668.851973 134.013777 668.858748 137.031804 668.912947 163.858895 684.271637 178.908609 705.947917 177.606748 718.213866 176.870767 728.095052 168.173731 732.508897 160.434984 732.947571 160.409722 733.386246 160.384459 733.82492 160.357513 734.465148 165.448749 739.249918 175.624484 754.142833 174.785769 755.152293 174.728507 756.131265 174.610616 757.093301 174.460725 752.911496 195.588596 750.453903 211.232821 753.512768 212.239952 757.653923 214.146429 770.731166 217.30761 773.132867 216.975829 775.317771 216.650785 777.282491 216.551419 778.40543 211.999117 779.767184 204.437208 782.128235 179.695115 784.885618 162.63619 788.560999 169.514327 795.532367 173.866214 807.141152 173.327281 831.479966 172.22752 846.655733 143.889731 852.692165 117.768305 852.482143 120.489918 852.311077 123.098693 852.178967 125.540734 843.976261 165.581798 833.908766 206.525575 838.910333 208.277108 843.036245 210.266109 856.088082 213.716967 858.491476 213.442448 860.678074 213.16456 862.642794 213.110667 863.794526 208.565101 865.207092 201.001508 867.732434 176.205522 870.603297 159.136492 874.231253 166.137573 881.170441 170.679771 892.777531 170.46925 911.1375 170.169468 924.384115 154.20862 932.453016 135.21964 932.419142 136.066776 932.383574 136.913912 932.36833 137.745891 931.87715 164.707715 952.814967 180.005002 974.250738 180.547303 991.176122 180.988555 1003.31674 172.406041 1010.88091 161.56506 1016.16702 170.001051 1024.38327 176.218995 1036.13433 176.954976 1049.92294 177.847584 1059.76686 163.677005 1063.51846 155.717634 1063.81148 155.741212 1064.1028 155.766474 1064.39581 155.790053 1064.14683 164.480353 1070.24932 173.655693 1082.29339 174.846399 1103.30912 176.948239 1118.53401 155.879314 1118.99131 142.373981 1119.37409 130.829018 1106.98281 131.716574 1106.98281 131.7351L1106.98281 131.7351ZM978.337694 65.5625053C979.946732 62.7819461 980.849486 61.9364944 981.731917 61.9550202 982.837918 61.9785986 984.138698 63.0901486 983.947308 71.5244555 983.330792 88.8225318 976.664294 110.939009 969.408381 110.812697 965.008086 110.740277 964.237441 105.546307 964.235748 105.544623 966.940625 92.1807602 973.017707 76.2721214 978.337694 65.5625053L978.337694 65.5625053ZM703.778256 160.246358C698.732652 160.552876 696.981342 155.756369 697.428485 143.360902 698.305834 122.416605 708.493584 74.1955439 722.426158 73.287778 726.181144 73.0469422 725.945716 77.974814 725.940635 79.682559 725.478248 86.9716325 723.032511 93.7470352 718.611891 100.003715 721.249019 103.038583 727.412481 103.932875 727.412481 103.93456 726.936545 111.232054 714.946672 159.576059 703.778256 160.246358L703.778256 160.246358ZM831.7137 88.9926326C830.910874 100.845798 822.418542 154.607768 804.016231 155.468377 795.901599 155.857419 792.929113 143.589949 793.70992 128.338135 794.204488 121.672203 796.016772 115.15111 796.016772 115.15111 797.109224 116.164978 800.835417 117.47526 801.060682 116.821803 803.569088 105.344207 814.25818 69.6331363 825.973669 69.0807296 833.924009 68.7152654 832.220123 82.9633158 831.7137 88.9926326L831.7137 88.9926326ZM917.907315 86.5084867C917.026578 98.3936512 908.175176 152.098359 889.772865 152.440245 881.659927 152.605293 878.772128 140.211511 879.654558 124.910856 880.191468 118.228083 882.04779 111.725515 882.04779 111.725515 883.131773 112.771382 886.849497 114.189451 887.079844 113.539362 889.662773 102.076924 900.587293 66.5005862 912.302782 66.3203803 920.253122 66.2092253 918.454387 80.4690649 917.907315 86.5084867L917.907315 86.5084867ZM1062.46666 77.3348306C1062.0517 84.0445508 1058.0562 92.4350694 1056.1406 97.7300895 1058.03757 100.913165 1060.00229 101.714828 1061.97209 102.304286 1061.24887 111.370156 1042.7551 158.434194 1032.47419 157.837999 1028.52782 157.600532 1028.54645 148.492558 1028.87334 144.38656 1030.48407 115.841618 1044.76216 68.8483146 1059.13849 69.9093396 1062.23123 70.1383863 1062.55981 74.0810205 1062.46666 77.3348306L1062.46666 77.3348306Z" fill="#E6E6E6"/>
    <path d="M62.0460238 0L157.953976 0C179.52873 0 187.352258 2.24637986 195.239665 6.46461164 203.127073 10.6828434 209.317157 16.8729271 213.535388 24.7603348 217.75362 32.6477424 220 40.4712696 220 62.0460238L220 157.953976C220 179.52873 217.75362 187.352258 213.535388 195.239665 209.317157 203.127073 203.127073 209.317157 195.239665 213.535388 187.352258 217.75362 179.52873 220 157.953976 220L62.0460238 220C40.4712696 220 32.6477424 217.75362 24.7603348 213.535388 16.8729271 209.317157 10.6828434 203.127073 6.46461164 195.239665 2.24637986 187.352258 0 179.52873 0 157.953976L0 62.0460238C0 40.4712696 2.24637986 32.6477424 6.46461164 24.7603348 10.6828434 16.8729271 16.8729271 10.6828434 24.7603348 6.46461164 32.6477424 2.24637986 40.4712696 0 62.0460238 0ZM62.0460238 6.4453125C43.3488756 6.4453125 35.7023258 7.92192938 27.7999368 12.1481733 21.0357439 15.7657032 15.7657032 21.0357439 12.1481733 27.7999368 7.92192938 35.7023258 6.4453125 43.3488756 6.4453125 62.0460238L6.4453125 157.953976C6.4453125 176.651124 7.92192938 184.297674 12.1481733 192.200063 15.7657032 198.964256 21.0357439 204.234297 27.7999368 207.851827 35.7023258 212.078071 43.3488756 213.554688 62.0460238 213.554688L157.953976 213.554688C176.651124 213.554688 184.297674 212.078071 192.200063 207.851827 198.964256 204.234297 204.234297 198.964256 207.851827 192.200063 212.078071 184.297674 213.554688 176.651124 213.554688 157.953976L213.554688 62.0460238C213.554688 43.3488756 212.078071 35.7023258 207.851827 27.7999368 204.234297 21.0357439 198.964256 15.7657032 192.200063 12.1481733 184.297674 7.92192938 176.651124 6.4453125 157.953976 6.4453125L62.0460238 6.4453125ZM149.794911 107.482896L165.144411 100.414411C167.664066 99.2532077 169.614472 100.624878 169.351742 103.373663L163.07906 169.104993C163.039833 169.519579 162.111154 171.060894 161.76176 171.290413L145.10972 182.250018 149.794911 107.482896ZM73.2968703 182.270088L56.6146332 171.290413C56.2652386 171.060894 55.3356482 169.519579 55.2964211 169.104993L49.0237385 103.373663C48.7610084 100.624878 50.7123271 99.2532077 53.2310701 100.414411L68.6113009 107.496926 73.2968703 182.270088ZM87.0449999 115.985548L104.84375 124.179688C106.566092 124.962592 107.159972 125.893369 107.220181 129.970279L109.188196 183.417247 110.846226 129.970279C110.919206 126.011304 111.262215 125.073269 113.222656 124.179688L131.360809 115.971848 128.617899 193.104174 110.938205 204.740133C110.265871 205.182842 108.407141 205.378063 107.733895 204.935354L89.7872552 193.123493 87.0449999 115.985548ZM109.11255 100.10116C109.11255 100.10116 77.0630028 101.990574 52.4216622 94.1971885 27.7803213 86.404703 23.3428557 74.2035833 23.0267817 69.9524005 22.2259426 59.2115282 39.4280028 42.2436851 68.9027894 57.6730046 96.5850109 72.1630155 104.715037 88.8843346 104.715037 88.8843346 104.715037 88.8843346 98.9307059 60.4270514 105.784894 38.3469924 112.639083 16.2669333 125.907976 14.8849615 134.109918 15.0064239 144.648677 15.1647748 152.041789 23.0715251 147.976332 43.896473 140.845135 80.4215568 109.11255 100.10116 109.11255 100.10116ZM111.252264 89.4745516C111.252264 89.4745516 126.597834 78.1317663 134.783795 56.1767683 142.033964 36.7328925 138.558926 28.6336019 133.080902 26.3420118 127.058627 23.8236921 118.581451 27.1292679 113.866977 44.7233169 109.151615 62.316466 111.252264 89.4745516 111.252264 89.4745516ZM100.198553 93.0167544C100.198553 93.0167544 90.7704925 81.5246149 72.7844621 70.5030295 57.2577717 60.989377 45.0853719 59.7144723 36.852355 64.0880173 27.1463977 69.2443197 39.6455256 76.9864209 45.6083146 80.8939101 64.4644361 93.2533812 100.198553 93.0167544 100.198553 93.0167544Z" fill="#E6E6E6"/>
</svg>