<?xml version="1.0" encoding="UTF-8"?>
<svg xmlns="http://www.w3.org/2000/svg" viewBox="0 0 1119 220">
    <defs>
        <linearGradient id="left-panel" x1="100" y1="33.4675825" x2="1.12711205" y2="66.5324175">
            <stop stop-color="#FFFFFF" offset="0%"/>
            <stop stop-color="#F4F4F4" offset="100%"/>
        </linearGradient>
    </defs>
    <path d="M1106.98281 133.7351C1105.05027 145.731419 1099.48977 161.208911 1091.37683 160.346618 1087.21027 159.90705 1085.10836 156.651556 1085.3133 149.916573 1085.73504 134.9157 1105.80228 44.5820505 1110.36348 21.7683283 1111.92001 14.9390323 1096.05321 9.7315888 1087.84034 9.01413378 1084.95423 8.74803544 1082.62367 12.2443655 1081.08577 19.0770299 1079.50044 27.4271284 1075.7065 50.3890574 1072.38341 65.5600311 1072.38511 65.5633994 1065.08685 57.5265559 1053.81004 56.7467867 1022.01375 54.65842 1005.79127 98.6168553 1003.51829 128.40808 1000.8964 141.958886 987.634545 164.004628 969.845362 163.634111 960.421481 163.447169 956.166846 157.148385 956.380256 146.775602 956.712226 130.575603 961.344561 119.392736 961.346254 119.39442 961.346254 119.401157 965.319731 129.145745 976.964084 129.39837 992.556507 129.750361 1005.65746 106.685698 1006.34003 79.1849398 1006.88033 57.2975092 990.264898 48.7251007 979.645249 48.5533157 963.856353 48.2703756 950.270993 67.5136645 941.761724 91.0953668 940.916555 71.4276679 931.612929 54.223905 909.887531 54.567475 901.708538 54.7055766 893.653187 60.7028943 886.666575 70.3531696 886.925715 67.7646053 887.406733 65.1693044 887.88775 62.5740035 888.148584 60.1892235 874.322715 53.9022291 867.688398 54.143065 862.807085 54.3131658 858.486395 72.8204738 855.601983 93.1618393 854.741571 73.4368788 845.349872 56.4301634 823.465264 57.4692942 815.28627 57.8600209 807.271568 64.0628069 800.347625 73.8579205 800.589827 71.2727246 801.053907 68.6774237 801.517988 66.0804386 801.761884 63.7040794 787.893672 57.8145484 781.257661 58.2052751 773.510568 58.6566318 767.484297 105.020057 766.234329 131.614734 764.422044 140.756391 762.513217 149.940152 760.706014 158.696134 759.84899 158.984127 758.947928 159.192964 757.960487 159.248541 751.59886 159.608953 750.096527 152.857128 750.579238 143.636316 750.873946 127.370634 755.814539 105.274366 762.557254 83.2673599 764.12903 78.4658006 753.094418 78.9154731 750.670699 78.2114914 750.670699 78.2131756 751.117842 76.6890047 751.124617 75.4056697 751.168654 66.8501028 739.497202 58.1598026 719.150495 59.4886101 694.767644 61.1020418 677.903234 85.2917283 671.604275 113.745725 670.420362 114.335183 669.138213 114.737699 667.723953 114.825276 664.421191 115.034112 661.992391 111.992507 661.985616 109.223737 662.390416 94.7264302 672.742457 80.6451123 672.95756 73.3863538 673.174357 69.3241437 671.180844 66.0467553 663.440525 64.8476286 654.372327 63.5205052 647.743091 65.8598128 645.995168 71.7139763 643.153099 81.4669857 638.583431 99.8328237 633.133028 112.915431 632.690966 112.730172 632.250597 112.54323 631.808535 112.357971 632.636766 100.615961 635.663451 85.7599266 636.503538 74.8616838 636.505232 74.8616838 627.36251 70.3178021 620.391142 69.9961262 621.42262 67.9667053 622.100109 66.1292794 622.091641 64.4838486 622.062847 58.5370559 610.100075 56.7131034 607.003947 57.3160351 590.84582 62.9697827 575.319452 132.466922 572.81274 144.22409 572.301236 144.249352 571.788037 144.272931 571.274839 144.298193 570.209487 124.211137 573.273433 98.4198078 577.516212 77.4165647 578.369849 73.7669755 568.371796 68.5679528 559.969231 68.9687845 555.104856 69.2011995 553.12828 70.5620062 551.622559 74.6545313 547.398412 93.4835152 539.724148 117.7372 531.621372 138.757285 531.182698 138.772442 530.74233 138.789284 530.301961 138.804441 530.276556 136.689128 529.793844 133.322479 529.744726 129.305741 529.776907 114.074137 532.014316 98.9755828 535.808258 83.5873516 536.646652 79.5352465 524.19778 73.9000247 515.795215 74.176228 510.653069 74.3496972 507.418056 84.8605816 505.499067 97.1482619 504.487914 97.0724744 503.595321 96.8215336 502.841614 95.6106177 501.257982 92.9108985 493.102701 93.9752918 486.930771 94.5260144 481.639577 95.0632635 472.828824 96.2842844 463.365988 97.8606644 466.208057 83.7069274 469.285554 69.7485537 472.82205 56.1876434 500.880282 52.3292174 526.111688 50.0606449 541.607569 48.960884 545.372718 48.7958357 547.56609 46.7883089 547.538991 44.2485855 547.494954 40.0196429 536.29097 29.9348527 535.166337 28.9209843 528.467658 25.3993917 520.502074 27.6174393 513.854208 28.2742643 507.428219 28.9243526 494.579628 30.6304135 479.309013 32.8568819 479.305625 32.6446769 479.302238 32.4341561 479.517341 32.0080619 475.476115 28.9344576 465.657597 25.7480142 458.096813 24.9918234 456.159193 28.3871035 454.462081 32.6194144 452.546479 37.0622462 442.379054 38.8373579 432.225179 40.7556238 423.146818 42.7496772 423.492338 41.040248 423.836164 39.3274504 424.183377 37.626442 424.996365 33.8606453 408.216641 26.7837768 401.556918 26.6372542 400.225651 26.6136759 398.011954 26.7804084 397.385276 28.4460493 391.95689 50.0758024 385.974657 83.2656757 381.735266 113.294368 381.108588 112.651017 380.48191 112.036296 379.877251 111.480521 378.073435 109.73404 376.295024 109.0469 369.901216 108.775749 362.848549 108.487756 348.340109 109.420785 338.069367 111.862826 328.089945 108.940797 312.046991 109.291104 312.245157 115.968825 312.358636 119.73799 319.772066 133.113642 325.684857 132.727968 329.412744 132.594919 334.224614 131.901042 339.910445 131.020223 342.190198 134.09888 344.056681 138.191405 344.19726 143.432531 344.674891 161.449747 332.056647 172.625877 314.518135 171.081496 300.705815 169.855423 292.194852 156.18841 291.561399 135.912727 290.199645 93.7799285 319.206363 46.1735881 334.3093 46.9836723 337.410508 47.1840881 341.89549 49.5419215 342.053006 55.4112425 342.535717 73.670978 328.664118 82.3848565 328.726785 84.4563816 328.792841 86.7586375 336.7381 95.280521 345.560708 95.8009286 356.807036 96.4779636 367.262394 82.672849 366.813557 64.4147977 366.373189 46.3571623 348.499319 31.4320769 328.533701 30.0813752 286.54967 27.2603959 262.798578 89.0322625 264.046853 125.23511 265.244316 160.681767 286.402316 187.460018 320.544405 190.397204 355.560455 193.277129 371.699951 164.120835 371.325638 148.456401 371.107148 139.641472 367.426685 132.983961 362.912911 128.362608 368.319278 127.820306 374.000028 127.515472 379.843376 127.426211 378.059885 141.537844 376.786204 154.315617 376.308574 163.977681 376.034191 170.677296 374.724942 179.844216 376.550777 182.858874 377.958261 186.530358 400.281544 195.941481 403.264192 192.403047 403.357347 186.735826 403.887482 181.07871 404.200821 175.416541 406.368788 138.789284 412.069863 100.868586 418.915895 64.4316394 419.464662 64.5175319 420.00496 64.5259527 420.526627 64.4249027 428.681908 63.0287285 436.838883 61.5769768 445.22451 60.2801685 441.708339 73.3509863 438.461471 88.2979659 435.451723 103.440309 426.229396 105.513518 418.993807 107.305471 416.819065 108.745434 412.908256 111.20937 422.697981 126.292767 429.93357 125.083535 430.373938 125.086903 431.02941 124.881435 431.689962 124.884803 427.73681 147.371797 424.679638 169.414171 422.62007 186.203629 424.642376 188.382941 448.70342 198.25721 449.462208 192.106634 452.063768 167.260122 455.144652 143.661578 459.140147 120.660913 473.484296 118.724122 490.062466 116.553231 503.566528 115.406313 503.188827 121.300897 503.061798 126.621179 503.115997 130.344872 503.466598 154.398141 506.373029 188.185893 526.733285 187.148447 529.582129 187.059186 533.298159 186.297943 534.593858 184.561567 536.131759 166.736346 541.363673 144.966807 548.231724 128.588286 548.672092 128.56976 549.11246 128.551234 549.552829 128.532709 549.373294 132.13851 551.068712 167.007497 551.571748 173.127759 552.122208 183.263074 559.481439 195.490125 575.241541 194.777722 580.713963 194.528465 583.755891 191.411073 583.755891 191.411073 585.043122 160.353354 595.979498 124.312187 607.862665 95.2518902 607.346079 100.371757 607.010722 105.747617 606.675365 110.847274 603.645292 153.695843 601.333359 167.610429 601.374009 173.766058 601.41127 178.442989 624.24267 184.654196 630.578892 181.307757 631.527377 150.863075 642.185982 121.949301 647.224811 110.143292 647.917544 119.884513 651.03569 131.192008 667.529175 130.171403 668.103347 130.136035 668.653808 130.043406 669.211043 129.96425 668.979003 132.985645 668.851973 136.013777 668.858748 139.031804 668.912947 165.858895 684.271637 180.908609 705.947917 179.606748 718.213866 178.870767 728.095052 170.173731 732.508897 162.434984 732.947571 162.409722 733.386246 162.384459 733.82492 162.357513 734.465148 167.448749 739.249918 177.624484 754.142833 176.785769 755.152293 176.728507 756.131265 176.610616 757.093301 176.460725 752.911496 197.588596 750.453903 213.232821 753.512768 214.239952 757.653923 216.146429 770.731166 219.30761 773.132867 218.975829 775.317771 218.650785 777.282491 218.551419 778.40543 213.999117 779.767184 206.437208 782.128235 181.695115 784.885618 164.63619 788.560999 171.514327 795.532367 175.866214 807.141152 175.327281 831.479966 174.22752 846.655733 145.889731 852.692165 119.768305 852.482143 122.489918 852.311077 125.098693 852.178967 127.540734 843.976261 167.581798 833.908766 208.525575 838.910333 210.277108 843.036245 212.266109 856.088082 215.716967 858.491476 215.442448 860.678074 215.16456 862.642794 215.110667 863.794526 210.565101 865.207092 203.001508 867.732434 178.205522 870.603297 161.136492 874.231253 168.137573 881.170441 172.679771 892.777531 172.46925 911.1375 172.169468 924.384115 156.20862 932.453016 137.21964 932.419142 138.066776 932.383574 138.913912 932.36833 139.745891 931.87715 166.707715 952.814967 182.005002 974.250738 182.547303 991.176122 182.988555 1003.31674 174.406041 1010.88091 163.56506 1016.16702 172.001051 1024.38327 178.218995 1036.13433 178.954976 1049.92294 179.847584 1059.76686 165.677005 1063.51846 157.717634 1063.81148 157.741212 1064.1028 157.766474 1064.39581 157.790053 1064.14683 166.480353 1070.24932 175.655693 1082.29339 176.846399 1103.30912 178.948239 1118.53401 157.879314 1118.99131 144.373981 1119.37409 132.829018 1106.98281 133.716574 1106.98281 133.7351L1106.98281 133.7351ZM978.337694 67.5625053C979.946732 64.7819461 980.849486 63.9364944 981.731917 63.9550202 982.837918 63.9785986 984.138698 65.0901486 983.947308 73.5244555 983.330792 90.8225318 976.664294 112.939009 969.408381 112.812697 965.008086 112.740277 964.237441 107.546307 964.235748 107.544623 966.940625 94.1807602 973.017707 78.2721214 978.337694 67.5625053L978.337694 67.5625053ZM703.778256 162.246358C698.732652 162.552876 696.981342 157.756369 697.428485 145.360902 698.305834 124.416605 708.493584 76.1955439 722.426158 75.287778 726.181144 75.0469422 725.945716 79.974814 725.940635 81.682559 725.478248 88.9716325 723.032511 95.7470352 718.611891 102.003715 721.249019 105.038583 727.412481 105.932875 727.412481 105.93456 726.936545 113.232054 714.946672 161.576059 703.778256 162.246358L703.778256 162.246358ZM831.7137 90.9926326C830.910874 102.845798 822.418542 156.607768 804.016231 157.468377 795.901599 157.857419 792.929113 145.589949 793.70992 130.338135 794.204488 123.672203 796.016772 117.15111 796.016772 117.15111 797.109224 118.164978 800.835417 119.47526 801.060682 118.821803 803.569088 107.344207 814.25818 71.6331363 825.973669 71.0807296 833.924009 70.7152654 832.220123 84.9633158 831.7137 90.9926326L831.7137 90.9926326ZM917.907315 88.5084867C917.026578 100.393651 908.175176 154.098359 889.772865 154.440245 881.659927 154.605293 878.772128 142.211511 879.654558 126.910856 880.191468 120.228083 882.04779 113.725515 882.04779 113.725515 883.131773 114.771382 886.849497 116.189451 887.079844 115.539362 889.662773 104.076924 900.587293 68.5005862 912.302782 68.3203803 920.253122 68.2092253 918.454387 82.4690649 917.907315 88.5084867L917.907315 88.5084867ZM1062.46666 79.3348306C1062.0517 86.0445508 1058.0562 94.4350694 1056.1406 99.7300895 1058.03757 102.913165 1060.00229 103.714828 1061.97209 104.304286 1061.24887 113.370156 1042.7551 160.434194 1032.47419 159.837999 1028.52782 159.600532 1028.54645 150.492558 1028.87334 146.38656 1030.48407 117.841618 1044.76216 70.8483146 1059.13849 71.9093396 1062.23123 72.1383863 1062.55981 76.0810205 1062.46666 79.3348306L1062.46666 79.3348306Z" fill="#1D1D1D"/>
    <rect width="220" height="220" rx="48.4000015" fill="#191919"/>
    <path d="M110.641586 204.935354L161.76176 171.290413C162.111154 171.060894 163.039833 169.519579 163.07906 169.104993L169.351742 103.373663C169.614472 100.624878 167.664066 99.2532077 165.144411 100.414411L111.853976 124.954797C109.893535 125.848379 109.550526 126.786413 109.477545 130.745388L109.002259 196.090255C109.002259 196.090255 108.869392 205.860536 110.641586 204.935354Z" fill="url(#left-panel)"/>
    <path d="M111.01346 204.935354C110.341127 205.378063 108.407141 205.378063 107.733895 204.935354L56.6146332 171.290413C56.2652386 171.060894 55.3356482 169.519579 55.2964211 169.104993L49.0237385 103.373663C48.7610084 100.624878 50.7123271 99.2532077 53.2310701 100.414411L106.522417 124.954797C108.244759 125.737701 108.838638 126.668478 108.898848 130.745388L109.374133 196.090255C109.374133 196.090255 109.374133 200.755667 111.01346 204.935354Z" fill="#FFF"/>
    <path d="M149.686527 108.292409L145.003128 183.017858 149.686527 108.292409 150.320451 108 149.686527 108.292409ZM87 116.864953L88.1666329 117.399388 90.9162991 194.743025 89.7425634 193.970164 87 116.864953Z" style="fill-opacity:0.400000006;fill:#C0C0C0"/>
    <path d="M109.11255 100.10116C109.11255 100.10116 140.845135 80.4215568 147.976332 43.896473 152.041789 23.0715251 144.648677 15.1647748 134.109918 15.0064239 125.907976 14.8849615 112.639083 16.2669333 105.784894 38.3469924 98.9307059 60.4270514 104.715037 88.8843346 104.715037 88.8843346 104.715037 88.8843346 96.5850109 72.1630155 68.9027894 57.6730046 39.4280028 42.2436851 22.2259426 59.2115282 23.0267817 69.9524005 23.3428557 74.2035833 27.7803213 86.404703 52.4216622 94.1971885 77.0630028 101.990574 109.11255 100.10116 109.11255 100.10116ZM111.252264 89.4745516C111.252264 89.4745516 109.151615 62.316466 113.866977 44.7233169 118.581451 27.1292679 127.058627 23.8236921 133.080902 26.3420118 138.558926 28.6336019 142.033964 36.7328925 134.783795 56.1767683 126.597834 78.1317663 111.252264 89.4745516 111.252264 89.4745516ZM100.198553 93.0167544C100.198553 93.0167544 64.4644361 93.2533812 45.6083146 80.8939101 39.6455256 76.9864209 27.1463977 69.2443197 36.852355 64.0880173 45.0853719 59.7144723 57.2577717 60.989377 72.7844621 70.5030295 90.7704925 81.5246149 100.198553 93.0167544 100.198553 93.0167544ZM86.6641943 114.474207L69.4292834 106.532367C68.9383035 106.306537 68.5529774 106.568356 68.5867156 107.10459L73.4725448 185.073533C73.4769839 185.162605 73.6598808 185.477508 73.73446 185.526992L88.9344224 195.643458C89.4298418 195.974555 89.8790929 195.726232 89.8586725 195.132416L87.0095672 114.988847C87.0042399 114.85029 86.7911566 114.532688 86.6641943 114.474207ZM131.739363 114.474207C131.612401 114.532688 131.400205 114.85029 131.395766 114.988847L128.545773 195.132416C128.524464 195.726232 128.973716 195.974555 129.470023 195.643458L144.669985 185.526992C144.744564 185.477508 144.926573 185.162605 144.932788 185.073533L149.818617 107.10459C149.851468 106.568356 149.465254 106.306537 148.974273 106.532367L131.739363 114.474207Z" fill="#8FA317"/>
</svg>
