<?xml version="1.0" encoding="UTF-8"?>
<svg xmlns="http://www.w3.org/2000/svg" viewBox="0 0 855 210">
    <path d="M842.982807 124.7351C841.050268 136.731419 835.489772 152.208911 827.376834 151.346618 823.210273 150.90705 821.108362 147.651556 821.313302 140.916573 821.73504 125.9157 841.802282 35.5820505 846.363481 12.7683283 847.920013 5.93903227 832.053206 0.731588803 823.840339 0.0141337844 820.954233-0.251964556 818.623669 3.24436554 817.085767 10.0770299 815.500442 18.4271284 811.7065 41.3890574 808.383413 56.5600311 808.385107 56.5633994 801.08685 48.5265559 789.810036 47.7467867 758.013755 45.65842 741.791266 89.6168553 739.518289 119.40808 736.896404 132.958886 723.634545 155.004628 705.845362 154.634111 696.421481 154.447169 692.166846 148.148385 692.380256 137.775602 692.712226 121.575603 697.344561 110.392736 697.346254 110.39442 697.346254 110.401157 701.319731 120.145745 712.964084 120.39837 728.556507 120.750361 741.657462 97.685698 742.340033 70.1849398 742.880331 48.2975092 726.264898 39.7251007 715.645249 39.5533157 699.856353 39.2703756 686.270993 58.5136645 677.761724 82.0953668 676.916555 62.4276679 667.612929 45.223905 645.887531 45.567475 637.708538 45.7055766 629.653187 51.7028943 622.666575 61.3531696 622.925715 58.7646053 623.406733 56.1693044 623.88775 53.5740035 624.148584 51.1892235 610.322715 44.9022291 603.688398 45.143065 598.807085 45.3131658 594.486395 63.8204738 591.601983 84.1618393 590.741571 64.4368788 581.349872 47.4301634 559.465264 48.4692942 551.28627 48.8600209 543.271568 55.0628069 536.347625 64.8579205 536.589827 62.2727246 537.053907 59.6774237 537.517988 57.0804386 537.761884 54.7040794 523.893672 48.8145484 517.257661 49.2052751 509.510568 49.6566318 503.484297 96.0200571 502.234329 122.614734 500.422044 131.756391 498.513217 140.940152 496.706014 149.696134 495.84899 149.984127 494.947928 150.192964 493.960487 150.248541 487.59886 150.608953 486.096527 143.857128 486.579238 134.636316 486.873946 118.370634 491.814539 96.2743663 498.557254 74.2673599 500.12903 69.4658006 489.094418 69.9154731 486.670699 69.2114914 486.670699 69.2131756 487.117842 67.6890047 487.124617 66.4056697 487.168654 57.8501028 475.497202 49.1598026 455.150495 50.4886101 430.767644 52.1020418 413.903234 76.2917283 407.604275 104.745725 406.420362 105.335183 405.138213 105.737699 403.723953 105.825276 400.421191 106.034112 397.992391 102.992507 397.985616 100.223737 398.390416 85.7264302 408.742457 71.6451123 408.95756 64.3863538 409.174357 60.3241437 407.180844 57.0467553 399.440525 55.8476286 390.372327 54.5205052 383.743091 56.8598128 381.995168 62.7139763 379.153099 72.4669857 374.583431 90.8328237 369.133028 103.915431 368.690966 103.730172 368.250597 103.54323 367.808535 103.357971 368.636766 91.6159612 371.663451 76.7599266 372.503538 65.8616838 372.505232 65.8616838 363.36251 61.3178021 356.391142 60.9961262 357.42262 58.9667053 358.100109 57.1292794 358.091641 55.4838486 358.062847 49.5370559 346.100075 47.7131034 343.003947 48.3160351 326.84582 53.9697827 311.319452 123.466922 308.81274 135.22409 308.301236 135.249352 307.788037 135.272931 307.274839 135.298193 306.209487 115.211137 309.273433 89.4198078 313.516212 68.4165647 314.369849 64.7669755 304.371796 59.5679528 295.969231 59.9687845 291.104856 60.2011995 289.12828 61.5620062 287.622559 65.6545313 283.398412 84.4835152 275.724148 108.7372 267.621372 129.757285 267.182698 129.772442 266.74233 129.789284 266.301961 129.804441 266.276556 127.689128 265.793844 124.322479 265.744726 120.305741 265.776907 105.074137 268.014316 89.9755828 271.808258 74.5873516 272.646652 70.5352465 260.19778 64.9000247 251.795215 65.176228 246.653069 65.3496972 243.418056 75.8605816 241.499067 88.1482619 240.487914 88.0724744 239.595321 87.8215336 238.841614 86.6106177 237.257982 83.9108985 229.102701 84.9752918 222.930771 85.5260144 217.639577 86.0632635 208.828824 87.2842844 199.365988 88.8606644 202.208057 74.7069274 205.285554 60.7485537 208.82205 47.1876434 236.880282 43.3292174 262.111688 41.0606449 277.607569 39.960884 281.372718 39.7958357 283.56609 37.7883089 283.538991 35.2485855 283.494954 31.0196429 272.29097 20.9348527 271.166337 19.9209843 264.467658 16.3993917 256.502074 18.6174393 249.854208 19.2742643 243.428219 19.9243526 230.579628 21.6304135 215.309013 23.8568819 215.305625 23.6446769 215.302238 23.4341561 215.517341 23.0080619 211.476115 19.9344576 201.657597 16.7480142 194.096813 15.9918234 192.159193 19.3871035 190.462081 23.6194144 188.546479 28.0622462 178.379054 29.8373579 168.225179 31.7556238 159.146818 33.7496772 159.492338 32.040248 159.836164 30.3274504 160.183377 28.626442 160.996365 24.8606453 144.216641 17.7837768 137.556918 17.6372542 136.225651 17.6136759 134.011954 17.7804084 133.385276 19.4460493 127.95689 41.0758024 121.974657 74.2656757 117.735266 104.294368 117.108588 103.651017 116.48191 103.036296 115.877251 102.480521 114.073435 100.73404 112.295024 100.0469 105.901216 99.7757489 98.8485493 99.4877564 84.3401094 100.420785 74.069367 102.862826 64.0899451 99.9407972 48.0469913 100.291104 48.245157 106.968825 48.3586365 110.73799 55.7720665 124.113642 61.684857 123.727968 65.4127436 123.594919 70.2246135 122.901042 75.910445 122.020223 78.1901975 125.09888 80.0566814 129.191405 80.1972605 134.432531 80.6748907 152.449747 68.0566468 163.625877 50.5181346 162.081496 36.7058153 160.855423 28.1948521 147.18841 27.5613993 126.912727 26.1996452 84.7799285 55.2063627 37.1735881 70.3092997 37.9836723 73.4105084 38.1840881 77.8954896 40.5419215 78.0530059 46.4112425 78.5357172 64.670978 64.6641176 73.3848565 64.7267854 75.4563816 64.7928406 77.7586375 72.7380999 86.280521 81.5607083 86.8009286 92.8070358 87.4779636 103.262394 73.672849 102.813557 55.4147977 102.373189 37.3571623 84.4993195 22.4320769 64.5337008 21.0813752 22.54967 18.2603959-1.2014219 80.0322625 0.0468527024 116.23511 1.24431558 151.681767 22.402316 178.460018 56.5444046 181.397204 91.5604549 184.277129 107.699951 155.120835 107.325638 139.456401 107.107148 130.641472 103.426685 123.983961 98.9129109 119.362608 104.319278 118.820306 110.000028 118.515472 115.843376 118.426211 114.059885 132.537844 112.786204 145.315617 112.308574 154.977681 112.034191 161.677296 110.724942 170.844216 112.550777 173.858874 113.958261 177.530358 136.281544 186.941481 139.264192 183.403047 139.357347 177.735826 139.887482 172.07871 140.200821 166.416541 142.368788 129.789284 148.069863 91.8685862 154.915895 55.4316394 155.464662 55.5175319 156.00496 55.5259527 156.526627 55.4249027 164.681908 54.0287285 172.838883 52.5769768 181.22451 51.2801685 177.708339 64.3509863 174.461471 79.2979659 171.451723 94.4403088 162.229396 96.513518 154.993807 98.3054714 152.819065 99.7454339 148.908256 102.20937 158.697981 117.292767 165.93357 116.083535 166.373938 116.086903 167.02941 115.881435 167.689962 115.884803 163.73681 138.371797 160.679638 160.414171 158.62007 177.203629 160.642376 179.382941 184.70342 189.25721 185.462208 183.106634 188.063768 158.260122 191.144652 134.661578 195.140147 111.660913 209.484296 109.724122 226.062466 107.553231 239.566528 106.406313 239.188827 112.300897 239.061798 117.621179 239.115997 121.344872 239.466598 145.398141 242.373029 179.185893 262.733285 178.148447 265.582129 178.059186 269.298159 177.297943 270.593858 175.561567 272.131759 157.736346 277.363673 135.966807 284.231724 119.588286 284.672092 119.56976 285.11246 119.551234 285.552829 119.532709 285.373294 123.13851 287.068712 158.007497 287.571748 164.127759 288.122208 174.263074 295.481439 186.490125 311.241541 185.777722 316.713963 185.528465 319.755891 182.411073 319.755891 182.411073 321.043122 151.353354 331.979498 115.312187 343.862665 86.2518902 343.346079 91.371757 343.010722 96.7476172 342.675365 101.847274 339.645292 144.695843 337.333359 158.610429 337.374009 164.766058 337.41127 169.442989 360.24267 175.654196 366.578892 172.307757 367.527377 141.863075 378.185982 112.949301 383.224811 101.143292 383.917544 110.884513 387.03569 122.192008 403.529175 121.171403 404.103347 121.136035 404.653808 121.043406 405.211043 120.96425 404.979003 123.985645 404.851973 127.013777 404.858748 130.031804 404.912947 156.858895 420.271637 171.908609 441.947917 170.606748 454.213866 169.870767 464.095052 161.173731 468.508897 153.434984 468.947571 153.409722 469.386246 153.384459 469.82492 153.357513 470.465148 158.448749 475.249918 168.624484 490.142833 167.785769 491.152293 167.728507 492.131265 167.610616 493.093301 167.460725 488.911496 188.588596 486.453903 204.232821 489.512768 205.239952 493.653923 207.146429 506.731166 210.30761 509.132867 209.975829 511.317771 209.650785 513.282491 209.551419 514.40543 204.999117 515.767184 197.437208 518.128235 172.695115 520.885618 155.63619 524.560999 162.514327 531.532367 166.866214 543.141152 166.327281 567.479966 165.22752 582.655733 136.889731 588.692165 110.768305 588.482143 113.489918 588.311077 116.098693 588.178967 118.540734 579.976261 158.581798 569.908766 199.525575 574.910333 201.277108 579.036245 203.266109 592.088082 206.716967 594.491476 206.442448 596.678074 206.16456 598.642794 206.110667 599.794526 201.565101 601.207092 194.001508 603.732434 169.205522 606.603297 152.136492 610.231253 159.137573 617.170441 163.679771 628.777531 163.46925 647.1375 163.169468 660.384115 147.20862 668.453016 128.21964 668.419142 129.066776 668.383574 129.913912 668.36833 130.745891 667.87715 157.707715 688.814967 173.005002 710.250738 173.547303 727.176122 173.988555 739.316735 165.406041 746.880907 154.56506 752.16702 163.001051 760.383275 169.218995 772.134332 169.954976 785.922939 170.847584 795.766863 156.677005 799.518462 148.717634 799.811476 148.741212 800.102797 148.766474 800.395811 148.790053 800.146833 157.480353 806.249321 166.655693 818.293393 167.846399 839.30912 169.948239 854.534005 148.879314 854.991311 135.373981 855.374092 123.829018 842.982807 124.716574 842.982807 124.7351L842.982807 124.7351ZM714.337694 58.5625053C715.946732 55.7819461 716.849486 54.9364944 717.731917 54.9550202 718.837918 54.9785986 720.138698 56.0901486 719.947308 64.5244555 719.330792 81.8225318 712.664294 103.939009 705.408381 103.812697 701.008086 103.740277 700.237441 98.5463072 700.235748 98.544623 702.940625 85.1807602 709.017707 69.2721214 714.337694 58.5625053L714.337694 58.5625053ZM439.778256 153.246358C434.732652 153.552876 432.981342 148.756369 433.428485 136.360902 434.305834 115.416605 444.493584 67.1955439 458.426158 66.287778 462.181144 66.0469422 461.945716 70.974814 461.940635 72.682559 461.478248 79.9716325 459.032511 86.7470352 454.611891 93.0037146 457.249019 96.038583 463.412481 96.9328755 463.412481 96.9345597 462.936545 104.232054 450.946672 152.576059 439.778256 153.246358L439.778256 153.246358ZM567.7137 81.9926326C566.910874 93.8457979 558.418542 147.607768 540.016231 148.468377 531.901599 148.857419 528.929113 136.589949 529.70992 121.338135 530.204488 114.672203 532.016772 108.15111 532.016772 108.15111 533.109224 109.164978 536.835417 110.47526 537.060682 109.821803 539.569088 98.3442072 550.25818 62.6331363 561.973669 62.0807296 569.924009 61.7152654 568.220123 75.9633158 567.7137 81.9926326L567.7137 81.9926326ZM653.907315 79.5084867C653.026578 91.3936512 644.175176 145.098359 625.772865 145.440245 617.659927 145.605293 614.772128 133.211511 615.654558 117.910856 616.191468 111.228083 618.04779 104.725515 618.04779 104.725515 619.131773 105.771382 622.849497 107.189451 623.079844 106.539362 625.662773 95.0769238 636.587293 59.5005862 648.302782 59.3203803 656.253122 59.2092253 654.454387 73.4690649 653.907315 79.5084867L653.907315 79.5084867ZM798.466659 70.3348306C798.051697 77.0445508 794.056202 85.4350694 792.1406 90.7300895 794.037571 93.9131646 796.002291 94.7148279 797.972092 95.3042863 797.248872 104.370156 778.755099 151.434194 768.474194 150.837999 764.527817 150.600532 764.546448 141.492558 764.873337 137.38656 766.484069 108.841618 780.762162 61.8483146 795.138492 62.9093396 798.231232 63.1383863 798.559814 67.0810205 798.466659 70.3348306L798.466659 70.3348306Z" fill="#1D1D1D"/>
</svg>