<?xml version="1.0" encoding="UTF-8"?>
<svg xmlns="http://www.w3.org/2000/svg" viewBox="0 0 1024 1024">
    <path d="M288.796038-1.16677056e-14L735.203962 1.16677056e-14C835.624636-6.77927296e-15 872.039599 10.4558772 908.751896 30.0898287 945.464194 49.7237802 974.27622 78.5358061 993.910171 115.248104 1013.54412 151.960401 1024 188.375364 1024 288.796038L1024 735.203962C1024 835.624636 1013.54412 872.039599 993.910171 908.751896 974.27622 945.464194 945.464194 974.27622 908.751896 993.910171 872.039599 1013.54412 835.624636 1024 735.203962 1024L288.796038 1024C188.375364 1024 151.960401 1013.54412 115.248104 993.910171 78.5358061 974.27622 49.7237802 945.464194 30.0898287 908.751896 10.4558772 872.039599 4.5195153e-15 835.624636-7.7784704e-15 735.203962L7.7784704e-15 288.796038C-4.5195153e-15 188.375364 10.4558772 151.960401 30.0898287 115.248104 49.7237802 78.5358061 78.5358061 49.7237802 115.248104 30.0898287 151.960401 10.4558772 188.375364 6.77927296e-15 288.796038-1.16677056e-14ZM697.227222 500.284024L675.419788 848.290992 752.927464 797.279015C754.553736 796.210707 758.876312 789.036587 759.058896 787.106879L788.255382 481.157413C789.478272 468.363071 780.400016 461.978567 768.672166 467.383439L697.227222 500.284024ZM341.163615 848.384411L319.354419 500.34933 247.766435 467.383439C236.042832 461.978567 226.96033 468.363071 228.183219 481.157413L257.379705 787.106879C257.56229 789.036587 261.88911 796.210707 263.515384 797.279015L341.163615 848.384411ZM405.154909 539.860006L417.918861 898.902076 501.45231 953.880921C504.585964 955.941529 513.237509 955.032865 516.366917 952.972257L598.657858 898.812155 611.424856 539.79624 527 578C517.875038 582.159218 516.278488 586.52534 515.938796 604.95257L508.221423 853.723913 499.061206 604.95257C498.78096 585.976408 496.01672 581.644066 488 578L405.154909 539.860006ZM507.869323 465.925398C507.869323 465.925398 655.570081 374.325792 688.762563 204.318129 707.685419 107.387462 673.273841 70.5851337 624.220707 69.8480821 586.044395 69.2827299 524.283731 75.7151807 492.380599 178.487819 460.477467 281.260458 487.400901 413.716176 487.400901 413.716176 487.400901 413.716176 449.559323 335.886036 320.711165 268.441622 183.519431 196.625153 103.45166 275.60275 107.179202 325.596628 108.650383 345.383952 129.304768 402.174618 243.999009 438.445096 358.693249 474.719764 507.869323 465.925398 507.869323 465.925398ZM517.828719 416.463368C517.828719 416.463368 508.051153 290.054824 529.999021 208.166711 551.942755 126.274411 591.400153 110.888458 619.431105 122.610091 644.928817 133.276401 661.103539 170.974918 627.357299 261.477322 589.255371 363.667858 517.828719 416.463368 517.828719 416.463368ZM466.378719 432.950712C466.378719 432.950712 300.052648 434.052102 212.285973 376.524382 184.531901 358.336796 126.354142 322.300834 171.530961 298.30059 209.851913 277.943726 266.508901 283.877828 338.778587 328.159556 422.495383 379.460026 466.378719 432.950712 466.378719 432.950712Z" fill="#191919"/>
</svg>