<?xml version="1.0" encoding="UTF-8"?>
<svg xmlns="http://www.w3.org/2000/svg" viewBox="0 0 1024 1024">
  <defs>
    <linearGradient id="right-panel" x1="100" y1="33.4675825" x2="1.12711205" y2="66.5324175">
      <stop stop-color="#FFFFFF" offset="0%"/>
      <stop stop-color="#F4F4F4" offset="100%"/>
    </linearGradient>
  </defs>
  <rect width="1024" height="1024" rx="225.280007" fill="#191919"/>
  <path d="M514.986292 953.880921L752.927464 797.279015C754.553736 796.210707 758.876312 789.036587 759.058896 787.106879L788.255382 481.157413C789.478272 468.363071 780.400016 461.978567 768.672166 467.383439L520.629416 581.607781C511.504454 585.766999 509.907904 590.133121 509.568212 608.560351L507.35597 912.711007C507.35597 912.711007 506.737534 958.187221 514.986292 953.880921Z" fill="url(#right-panel)"/>
  <path d="M516.717198 953.880921C513.58779 955.941529 504.585964 955.941529 501.45231 953.880921L263.515384 797.279015C261.88911 796.210707 257.56229 789.036587 257.379705 787.106879L228.183219 481.157413C226.96033 468.363071 236.042832 461.978567 247.766435 467.383439L495.81343 581.607781C503.83015 585.251847 506.59439 589.584189 506.874636 608.560351L509.086876 912.711007C509.086876 912.711007 509.086876 934.426377 516.717198 953.880921Z" fill="#FFFFFF"/>
  <path d="M696.722745 504.051941L674.923649 851.864937 696.722745 504.051941 699.673371 502.690909 696.722745 504.051941ZM404.945455 543.953237L410.375601 546.440787 423.174047 906.440261 417.710841 902.842947 404.945455 543.953237Z" style="fill-opacity:0.400000006;fill:#C0C0C0"/>
  <path d="M507.869323 465.925398C507.869323 465.925398 655.570081 374.325792 688.762563 204.318129 707.685419 107.387462 673.273841 70.5851337 624.220707 69.8480821 586.044395 69.2827299 524.283731 75.7151807 492.380599 178.487819 460.477467 281.260458 487.400901 413.716176 487.400901 413.716176 487.400901 413.716176 449.559323 335.886036 320.711165 268.441622 183.519431 196.625153 103.45166 275.60275 107.179202 325.596628 108.650383 345.383952 129.304768 402.174618 243.999009 438.445096 358.693249 474.719764 507.869323 465.925398 507.869323 465.925398ZM517.828719 416.463368C517.828719 416.463368 508.051153 290.054824 529.999021 208.166711 551.942755 126.274411 591.400153 110.888458 619.431105 122.610091 644.928817 133.276401 661.103539 170.974918 627.357299 261.477322 589.255371 363.667858 517.828719 416.463368 517.828719 416.463368ZM466.378719 432.950712C466.378719 432.950712 300.052648 434.052102 212.285973 376.524382 184.531901 358.336796 126.354142 322.300834 171.530961 298.30059 209.851913 277.943726 266.508901 283.877828 338.778587 328.159556 422.495383 379.460026 466.378719 432.950712 466.378719 432.950712ZM403.382431 532.825398L323.161755 495.859744C320.876467 494.808608 319.082949 496.027256 319.239985 498.523182L341.981299 861.433172C342.001961 861.847764 342.853263 863.31349 343.200395 863.54382L413.949311 910.631368C416.255263 912.172476 418.346323 911.016646 418.251275 908.252702L404.989985 535.220814C404.965189 534.575894 403.973383 533.097604 403.382431 532.825398ZM613.186853 532.825398C612.595901 533.097604 611.608225 534.575894 611.587563 535.220814L598.322141 908.252702C598.222961 911.016646 600.314021 912.172476 602.624105 910.631368L673.373021 863.54382C673.720153 863.31349 674.567323 861.847764 674.596249 861.433172L697.337563 498.523182C697.490467 496.027256 695.692817 494.808608 693.407527 495.859744L613.186853 532.825398Z" fill="#8FA317"/>
</svg>